<svg width="33" height="31" viewBox="0 0 33 31" fill="none" xmlns="http://www.w3.org/2000/svg">
<path d="M16.0125 7.46313C11.4696 7.46313 7.80536 10.97 7.80536 15.3176C7.80536 19.6653 11.4696 23.1721 16.0125 23.1721C20.5554 23.1721 24.2196 19.6653 24.2196 15.3176C24.2196 10.97 20.5554 7.46313 16.0125 7.46313ZM16.0125 20.4241C13.0768 20.4241 10.6768 18.134 10.6768 15.3176C10.6768 12.5012 13.0696 10.2112 16.0125 10.2112C18.9554 10.2112 21.3482 12.5012 21.3482 15.3176C21.3482 18.134 18.9482 20.4241 16.0125 20.4241ZM26.4696 7.14185C26.4696 8.1604 25.6125 8.97388 24.5554 8.97388C23.4911 8.97388 22.6411 8.15356 22.6411 7.14185C22.6411 6.13013 23.4982 5.30981 24.5554 5.30981C25.6125 5.30981 26.4696 6.13013 26.4696 7.14185ZM31.9054 9.00122C31.7839 6.54712 31.1982 4.37329 29.3196 2.58228C27.4482 0.79126 25.1768 0.230713 22.6125 0.107666C19.9696 -0.0358887 12.0482 -0.0358887 9.40536 0.107666C6.84821 0.223877 4.57679 0.784424 2.69821 2.57544C0.819643 4.36646 0.241071 6.54028 0.1125 8.99438C-0.0375 11.5237 -0.0375 19.1047 0.1125 21.634C0.233929 24.0881 0.819643 26.262 2.69821 28.053C4.57679 29.844 6.84107 30.4045 9.40536 30.5276C12.0482 30.6711 19.9696 30.6711 22.6125 30.5276C25.1768 30.4114 27.4482 29.8508 29.3196 28.053C31.1911 26.262 31.7768 24.0881 31.9054 21.634C32.0554 19.1047 32.0554 11.5305 31.9054 9.00122ZM28.4911 24.3479C27.9339 25.6877 26.8554 26.72 25.4482 27.26C23.3411 28.0598 18.3411 27.8752 16.0125 27.8752C13.6839 27.8752 8.67678 28.053 6.57679 27.26C5.17678 26.7268 4.09821 25.6946 3.53393 24.3479C2.69821 22.3313 2.89107 17.5461 2.89107 15.3176C2.89107 13.0891 2.70536 8.29712 3.53393 6.28735C4.09107 4.94751 5.16964 3.91528 6.57679 3.37524C8.68393 2.57544 13.6839 2.76001 16.0125 2.76001C18.3411 2.76001 23.3482 2.58228 25.4482 3.37524C26.8482 3.90845 27.9268 4.94067 28.4911 6.28735C29.3268 8.30396 29.1339 13.0891 29.1339 15.3176C29.1339 17.5461 29.3268 22.3381 28.4911 24.3479Z" fill="white"/>
</svg>
