<svg width="37" height="27" viewBox="0 0 37 27" fill="none" xmlns="http://www.w3.org/2000/svg">
<path d="M35.2768 4.10724C34.8624 2.49054 33.6415 1.21728 32.0914 0.785176C29.2816 0 18.0148 0 18.0148 0C18.0148 0 6.7481 0 3.93828 0.785176C2.38813 1.21734 1.16725 2.49054 0.752875 4.10724C0 7.0376 0 13.1515 0 13.1515C0 13.1515 0 19.2654 0.752875 22.1958C1.16725 23.8125 2.38813 25.0327 3.93828 25.4648C6.7481 26.25 18.0148 26.25 18.0148 26.25C18.0148 26.25 29.2816 26.25 32.0914 25.4648C33.6415 25.0327 34.8624 23.8125 35.2768 22.1958C36.0297 19.2654 36.0297 13.1515 36.0297 13.1515C36.0297 13.1515 36.0297 7.0376 35.2768 4.10724ZM14.33 18.7025V7.60054L23.7468 13.1517L14.33 18.7025Z" fill="white"/>
</svg>
